<svg width="25" height="26" viewBox="0 0 25 26" fill="none" xmlns="http://www.w3.org/2000/svg">
<path d="M12.5 0.890625C5.81216 0.890625 0.390625 6.31216 0.390625 13C0.390625 19.6878 5.81216 25.1094 12.5 25.1094C19.1878 25.1094 24.6094 19.6878 24.6094 13C24.6094 6.31216 19.1878 0.890625 12.5 0.890625ZM18.2194 17.8219C18.1417 17.9131 16.2772 20.0549 12.8556 20.0549C8.72026 20.0549 5.80073 16.966 5.80073 12.9471C5.80073 8.97725 8.82827 5.94512 12.8204 5.94512C16.0897 5.94512 17.7991 7.76714 17.8703 7.84473C17.9579 7.94028 18.0114 8.06221 18.0224 8.19142C18.0333 8.32063 18.0011 8.44981 17.9307 8.55874L16.8379 10.2509C16.6402 10.5569 16.2142 10.6098 15.9476 10.3629C15.9362 10.3525 14.6522 9.19692 12.9261 9.19692C10.6744 9.19692 9.31694 10.8363 9.31694 12.9119C9.31694 14.8456 10.5627 16.8031 12.9438 16.8031C14.8333 16.8031 16.1312 15.4194 16.1441 15.4054C16.3947 15.1336 16.8306 15.1596 17.0479 15.4568L18.2464 17.096C18.3242 17.2024 18.3639 17.332 18.359 17.4637C18.3541 17.5954 18.3049 17.7216 18.2194 17.8219Z" fill="#B3B7B9"/>
</svg>
