<svg width="27" height="38" viewBox="0 0 27 38" fill="none" xmlns="http://www.w3.org/2000/svg">
<path d="M22.8351 15.9867C23.7227 13.5672 26.2793 6.56836 26.2793 4.32695C26.2793 2.35273 25.0882 0.697656 22.964 0.697656C19.5805 0.697656 16.5459 10.4723 15.5976 12.8027C14.8618 10.6875 11.4175 0 8.38298 0C6.02361 0 4.91599 1.69961 4.91599 3.83711C4.91599 6.45703 7.51054 13.248 8.45126 15.8605C7.97331 15.6898 7.45744 15.5414 6.93398 15.5414C5.15876 15.5414 3.26975 17.7012 3.26975 19.4453C3.26975 20.1059 3.64148 21.0336 3.87666 21.6496C1.07728 22.3918 8.30747e-06 24.2176 8.30747e-06 26.9711C-0.00757809 32.3297 5.18152 38 12.4796 38C21.4316 38 27 31.4242 27 22.941C27 19.7422 26.4765 16.8551 22.8351 15.9867V15.9867ZM20.1495 8.01562C20.4529 7.10273 21.7502 3.24336 22.964 3.24336C23.6165 3.24336 23.791 3.90391 23.791 4.43086C23.791 5.84844 20.8626 13.6785 20.2178 15.4152L17.6384 14.9699L20.1495 8.01562V8.01562ZM7.29812 3.58477C7.29812 2.70156 8.39815 0.192968 10.8106 7.08047L13.4355 14.5246C12.252 14.4281 11.3341 14.302 10.7499 14.6285C9.92302 12.491 7.29812 5.74453 7.29812 3.58477V3.58477ZM7.12364 18.1094C9.34645 18.1094 12.2141 25.1305 12.2141 26.0805C12.2141 26.459 11.8424 26.9266 11.41 26.9266C9.82439 26.9266 5.57601 21.2191 5.57601 19.6754C5.5836 19.1039 6.53948 18.1094 7.12364 18.1094V18.1094ZM21.1054 31.9363C18.8977 34.3113 16.0756 35.5434 12.7831 35.5434C8.27677 35.5434 4.71875 33.1238 3.00422 28.9898C1.70695 25.7687 3.29251 23.9207 4.56702 23.9207C5.43187 23.9207 8.68643 28.3961 8.68643 29.3461C8.68643 29.7098 8.10228 29.9621 7.79882 29.9621C6.57741 29.9621 6.09947 28.8117 3.92218 26.1473C1.66902 28.3516 5.47739 32.5969 8.34505 32.5969C10.3251 32.5969 11.6148 30.8008 11.2279 29.4797C11.5086 29.4797 11.8575 29.502 12.1155 29.4352C12.1989 31.4465 12.8058 33.8438 15.279 34.0145C15.279 33.9477 15.4307 33.4875 15.4307 33.4652C15.4307 32.1738 14.6266 31.0457 14.6266 29.732C14.6266 27.6316 16.2728 25.598 17.9418 24.4105C18.5488 23.9652 19.2846 23.6906 19.9978 23.4383C20.7336 23.1637 21.515 22.8445 22.0764 22.2953C21.993 21.4641 21.644 20.7293 20.7943 20.7293C18.6929 20.7293 11.6451 21.0262 11.6451 17.7828C11.6451 17.2855 11.6527 16.8105 12.9652 16.8105C15.4156 16.8105 21.6364 17.4043 23.4571 18.9703C24.8303 20.1652 25.3006 27.3719 21.1054 31.9363V31.9363ZM13.6252 22.5848C14.3611 22.8148 15.1197 22.8816 15.8783 23.0301C15.3169 23.4309 14.8162 23.9207 14.3383 24.4477C14.1259 23.8168 13.8679 23.2008 13.6252 22.5848V22.5848Z" fill="url(#paint0_linear_6_209)"/>
<defs>
<linearGradient id="paint0_linear_6_209" x1="28.5187" y1="19.2468" x2="-1.01228e-06" y2="19.2468" gradientUnits="userSpaceOnUse">
<stop stop-color="#FFE666"/>
<stop offset="1" stop-color="#60D9FB"/>
</linearGradient>
</defs>
</svg>
