<svg width="38" height="38" viewBox="0 0 38 38" fill="none" xmlns="http://www.w3.org/2000/svg">
<path d="M19 0C8.50403 0 0 8.50403 0 19C0 29.496 8.50403 38 19 38C29.496 38 38 29.496 38 19C38 8.50403 29.496 0 19 0ZM20.5399 15.177C20.8464 13.2464 23.1601 11.9516 25.129 11.9516C27.098 11.9516 29.4117 13.2464 29.7181 15.177C29.8484 16.0274 28.8448 16.579 28.2012 16.0044L27.4734 15.3532C26.3395 14.3419 23.9339 14.3419 22.8 15.3532L22.0645 16.0121C21.421 16.579 20.4097 16.0351 20.5399 15.177ZM12.871 11.6452C14.227 11.6452 15.3226 12.7407 15.3226 14.0968C15.3226 15.4528 14.227 16.5484 12.871 16.5484C11.5149 16.5484 10.4194 15.4528 10.4194 14.0968C10.4194 12.7407 11.5149 11.6452 12.871 11.6452ZM30.5609 22.8306C29.879 28.2702 25.2363 32.4839 19.6129 32.4839H18.3871C12.7637 32.4839 8.12097 28.2702 7.43911 22.8306C7.34718 22.1028 7.92177 21.4516 8.65726 21.4516H29.3427C30.0782 21.4516 30.6528 22.0952 30.5609 22.8306Z" fill="url(#paint0_linear_6_214)"/>
<defs>
<linearGradient id="paint0_linear_6_214" x1="40.1375" y1="19.2468" x2="-1.42469e-06" y2="19.2468" gradientUnits="userSpaceOnUse">
<stop stop-color="#FFE666"/>
<stop offset="1" stop-color="#60D9FB"/>
</linearGradient>
</defs>
</svg>
