<svg width="38" height="38" viewBox="0 0 38 38" fill="none" xmlns="http://www.w3.org/2000/svg">
<path d="M18.2237 8.10102L12.6723 10.4321V0.901032L8.15356 16.6319L12.6723 14.6314V25.4025L18.2237 8.10102ZM11.3505 0.107462L11.2432 0.495981L9.98749 4.86888C6.65833 6.15016 4.2957 9.3823 4.2957 13.16C4.2957 17.4833 7.1292 21.0874 11.1853 21.881V26.3118C4.75005 25.4438 0 19.8475 0 13.1683C0 6.51388 4.94005 1.00023 11.3505 0.107462ZM37.0752 37.0746C36.1499 38.0004 35.1669 38.0913 34.7125 37.9425C34.2664 37.7937 32.4738 36.2975 29.7229 34.2723C26.972 32.2387 26.9472 31.3212 26.1707 29.5852C25.3942 27.8576 23.6594 26.0638 21.4207 25.2537L20.6193 24.0385C18.5789 25.4355 16.241 26.2622 13.9032 26.411L14.0767 25.8654L15.3902 21.7736C19.2315 20.7899 22.0733 17.3097 22.0733 13.16C22.0733 8.65486 18.9011 4.72008 14.1428 4.30677V0C21.0159 0.421584 26.4351 6.15843 26.4351 13.1683C26.4351 15.9458 25.5098 18.5166 24.0394 20.6411L25.2455 21.4346C26.055 23.6748 27.8477 25.4025 29.5742 26.1795C31.3008 26.9566 32.2342 26.9813 34.2664 29.734C36.2986 32.4785 37.7939 34.2723 37.9426 34.7186C38.0913 35.165 38.0004 36.1487 37.0752 37.0746ZM36.2573 35.5949C36.2573 35.2312 35.9599 34.9336 35.5964 34.9336C35.233 34.9336 34.9356 35.2312 34.9356 35.5949C34.9356 35.9586 35.233 36.2562 35.5964 36.2562C35.9599 36.2562 36.2573 35.9586 36.2573 35.5949Z" fill="url(#paint0_linear_6_219)"/>
<defs>
<linearGradient id="paint0_linear_6_219" x1="40.1375" y1="19.2468" x2="-1.42469e-06" y2="19.2468" gradientUnits="userSpaceOnUse">
<stop stop-color="#FFE666"/>
<stop offset="1" stop-color="#60D9FB"/>
</linearGradient>
</defs>
</svg>
